<?xml version="1.0" standalone="no"?>
<!DOCTYPE svg PUBLIC "-//W3C//DTD SVG 20010904//EN"
 "http://www.w3.org/TR/2001/REC-SVG-20010904/DTD/svg10.dtd">
<svg version="1.0" xmlns="http://www.w3.org/2000/svg"
 width="463.000000pt" height="164.000000pt" viewBox="0 0 463.000000 164.000000"
 preserveAspectRatio="xMidYMid meet">
<metadata>
Created by potrace 1.15, written by Peter Selinger 2001-2017
</metadata>
<g transform="translate(0.000000,164.000000) scale(0.100000,-0.100000)"
fill="#000000" stroke="none">
<path d="M133 1544 c-64 -32 -63 -15 -63 -714 0 -701 -2 -683 65 -714 29 -14
96 -16 503 -16 l469 0 34 23 c19 13 39 38 46 57 9 26 12 202 12 655 1 571 0
623 -17 655 -35 70 -31 70 -552 70 -402 0 -469 -3 -497 -16z m943 -148 c3 -13
4 -35 2 -47 l-3 -24 -445 0 -445 0 -3 24 c-2 12 -1 34 2 47 l6 24 440 0 440 0
6 -24z m2 -636 c1 -267 0 -495 -3 -507 l-5 -23 -439 0 c-391 0 -440 2 -445 16
-8 22 -8 989 1 997 3 4 205 6 447 5 l441 -3 3 -485z"/>
<path d="M247 1203 c-4 -3 -7 -82 -7 -175 l0 -168 390 0 390 0 0 175 0 175
-383 0 c-211 0 -387 -3 -390 -7z m541 -175 l-3 -33 -225 0 -225 0 -3 33 -3 32
231 0 231 0 -3 -32z"/>
<path d="M240 750 l0 -60 110 0 110 0 0 60 0 60 -110 0 -110 0 0 -60z"/>
<path d="M520 750 l0 -60 110 0 110 0 0 60 0 60 -110 0 -110 0 0 -60z"/>
<path d="M800 750 l0 -60 110 0 110 0 0 60 0 60 -110 0 -110 0 0 -60z"/>
<path d="M240 405 l0 -85 390 0 390 0 0 85 0 85 -390 0 -390 0 0 -85z"/>
<path d="M1688 1533 c-54 -34 -53 -21 -56 -672 -1 -332 1 -608 5 -612 4 -4
451 -9 993 -11 l985 -2 3 622 2 622 -29 32 -29 33 -924 2 c-847 2 -925 1 -950
-14z m1832 -138 l0 -25 -890 0 -890 0 0 25 0 25 890 0 890 0 0 -25z m0 -570
l0 -475 -90 0 -90 0 0 55 0 55 -719 0 -720 0 -3 -52 -3 -53 -77 -3 -78 -3 0
476 0 475 890 0 890 0 0 -475z"/>
<path d="M1900 1075 l0 -185 720 0 720 0 0 185 0 185 -720 0 -720 0 0 -185z
m980 -10 l0 -45 -360 0 -360 0 0 45 0 45 360 0 360 0 0 -45z"/>
<path d="M1900 750 l0 -90 220 0 220 0 0 90 0 90 -220 0 -220 0 0 -90z"/>
<path d="M2400 750 l0 -90 220 0 220 0 0 90 0 90 -220 0 -220 0 0 -90z"/>
<path d="M2900 750 l0 -90 220 0 220 0 0 90 0 90 -220 0 -220 0 0 -90z"/>
<path d="M4130 943 c-39 -14 -40 -25 -40 -418 0 -357 1 -383 18 -398 16 -15
45 -17 200 -17 169 0 183 1 202 20 19 19 20 33 20 399 l0 380 -26 20 c-25 19
-39 21 -193 20 -91 0 -173 -3 -181 -6z m360 -138 l0 -25 -180 0 -180 0 0 25 0
25 180 0 180 0 0 -25z m0 -400 l0 -155 -180 0 -180 0 0 155 0 155 180 0 180 0
0 -155z"/>
<path d="M4154 366 c-3 -8 -4 -27 -2 -43 l3 -28 155 0 155 0 0 40 0 40 -153 3
c-125 2 -153 0 -158 -12z"/>
<path d="M3664 234 c3 -9 6 -28 6 -44 0 -22 5 -30 23 -32 79 -14 -278 -18
-1181 -16 -764 2 -1032 0 -1032 -8 0 -7 10 -14 23 -18 29 -8 2215 -8 2245 0
12 4 22 12 22 19 0 7 15 16 34 19 37 7 46 21 46 67 l0 29 -96 0 c-84 0 -95 -2
-90 -16z"/>
</g>
</svg>
