<?xml version="1.0" standalone="no"?>
<!DOCTYPE svg PUBLIC "-//W3C//DTD SVG 20010904//EN"
 "http://www.w3.org/TR/2001/REC-SVG-20010904/DTD/svg10.dtd">
<svg version="1.0" xmlns="http://www.w3.org/2000/svg"
 width="1427.000000pt" height="460.000000pt" viewBox="0 0 1427.000000 460.000000"
 preserveAspectRatio="xMidYMid meet">
<metadata>
Created by potrace 1.15, written by Peter Selinger 2001-2017
</metadata>
<g transform="translate(0.000000,460.000000) scale(0.100000,-0.100000)"
fill="#000000" stroke="none">
<path d="M277 4589 c-106 -25 -207 -113 -249 -217 l-23 -57 -3 -1955 c-2
-1287 1 -1981 7 -2032 18 -132 82 -227 193 -285 l53 -28 1502 -3 c1500 -2
1502 -2 1557 19 74 27 157 104 193 177 l28 57 0 2035 0 2035 -33 67 c-37 77
-90 128 -172 167 l-55 26 -1480 2 c-840 0 -1496 -3 -1518 -8z m2911 -421 c8
-8 12 -56 12 -150 l0 -138 -1425 0 -1425 0 0 144 c0 106 3 146 13 149 6 3 642
6 1413 6 1076 1 1403 -2 1412 -11z m10 -2140 l-3 -1623 -1422 -3 -1423 -2 0
1625 0 1625 1425 0 1425 0 -2 -1622z"/>
<path d="M510 2945 l0 -565 1260 0 1260 0 0 565 0 565 -1260 0 -1260 0 0 -565z
m1770 -15 l0 -100 -725 0 -725 0 0 100 0 100 725 0 725 0 0 -100z"/>
<path d="M1417 2263 c-4 -3 -7 -102 -7 -220 l0 -213 355 0 355 0 0 220 0 220
-348 0 c-192 0 -352 -3 -355 -7z"/>
<path d="M510 2045 l0 -215 355 0 355 0 0 215 0 215 -355 0 -355 0 0 -215z"/>
<path d="M2320 2045 l0 -215 355 0 355 0 0 215 0 215 -355 0 -355 0 0 -215z"/>
<path d="M517 1223 c-4 -3 -7 -132 -7 -285 l0 -278 1260 0 1260 0 0 285 0 285
-1253 0 c-690 0 -1257 -3 -1260 -7z"/>
<path d="M5269 4566 c-99 -26 -183 -97 -230 -191 l-24 -50 -3 -1952 -2 -1953
2152 -2 c1184 -1 2606 -2 3161 -3 l1007 0 0 1931 c0 2131 5 1981 -63 2081 -19
26 -58 65 -88 85 -107 74 143 68 -3019 67 -2221 0 -2855 -3 -2891 -13z m5765
-392 c8 -20 8 -3368 0 -3388 -5 -14 -40 -16 -290 -16 l-284 0 0 175 0 175
-2320 0 -2320 0 0 -175 0 -175 -242 2 -243 3 -3 1513 -2 1512 2850 0 2850 0 0
110 0 110 -2850 0 -2850 0 0 85 0 85 2849 0 c2589 0 2849 -1 2855 -16z m-3864
-269 l0 -25 -345 0 -345 0 0 25 0 25 345 0 345 0 0 -25z m830 0 l0 -25 -345 0
-345 0 0 25 0 25 345 0 345 0 0 -25z m870 0 l0 -25 -345 0 -345 0 0 25 0 25
345 0 345 0 0 -25z m870 0 l0 -25 -345 0 -345 0 0 25 0 25 345 0 345 0 0 -25z"/>
<path d="M5820 3090 l0 -600 2320 0 2320 0 0 600 0 600 -2320 0 -2320 0 0
-600z m3165 -35 l0 -120 -1162 -3 -1163 -2 0 118 c0 65 3 122 7 125 3 4 527 6
1162 5 l1156 -3 0 -120z"/>
<path d="M9030 2055 l0 -305 715 0 715 0 0 305 0 305 -715 0 -715 0 0 -305z"/>
<path d="M5820 2040 l0 -310 710 0 710 0 0 310 0 310 -710 0 -710 0 0 -310z"/>
<path d="M7420 2040 l0 -310 715 0 715 0 0 310 0 310 -715 0 -715 0 0 -310z"/>
<path d="M12991 2635 c-53 -17 -97 -56 -122 -110 -18 -38 -19 -92 -19 -1186
l0 -1147 28 -53 c22 -43 38 -59 81 -81 l53 -28 532 0 c492 0 534 2 571 19 51
23 101 79 114 128 15 53 15 2273 0 2327 -15 55 -84 120 -141 134 -72 18 -1038
15 -1097 -3z m1127 -407 l3 -68 -571 0 -570 0 0 63 c0 35 3 67 7 70 3 4 259 6
567 5 l561 -3 3 -67z m2 -213 l0 -35 -570 0 -570 0 0 35 0 35 570 0 570 0 0
-35z m-350 -300 l0 -65 -335 0 -335 0 0 65 0 65 335 0 335 0 0 -65z m350 -780
l0 -495 -567 2 -568 3 -3 493 -2 492 570 0 570 0 0 -495z"/>
<path d="M13050 1265 l0 -105 140 0 140 0 0 105 0 105 -140 0 -140 0 0 -105z"/>
<path d="M13410 1265 l0 -105 140 0 140 0 0 105 0 105 -140 0 -140 0 0 -105z"/>
<path d="M13770 1265 l0 -105 140 0 140 0 0 105 0 105 -140 0 -140 0 0 -105z"/>
<path d="M13050 720 l0 -140 500 0 500 0 0 140 0 140 -500 0 -500 0 0 -140z"/>
<path d="M4230 358 c0 -119 101 -218 222 -218 91 0 88 -4 88 141 l0 129 -155
0 -155 0 0 -52z"/>
<path d="M11500 280 l0 -129 33 -6 c17 -4 113 -5 213 -3 177 3 181 4 221 30
52 34 103 131 103 195 l0 43 -285 0 -285 0 0 -130z"/>
<path d="M7590 331 c0 -6 10 -17 22 -25 33 -24 934 -24 978 -1 17 9 30 20 30
25 0 6 -187 10 -515 10 -316 0 -515 -4 -515 -9z"/>
<path d="M4510 85 c14 -7 59 -21 100 -31 72 -18 231 -19 3505 -22 2510 -2
3450 0 3505 8 94 14 192 39 204 51 6 5 -1420 9 -3665 9 -3117 -1 -3670 -3
-3649 -15z"/>
</g>
</svg>
